PathFileType	4	(X/Y/Z)	 s03c0101.trc
DataRate	CameraRate	NumFrames	NumMarkers	Units	OrigDataRate	OrigDataStartFrame	OrigNumFrames
200	200	5	52	mm	200	1	2000
Frame#	Time	racr			lacr			c7			jug			rlel			rdr			llel			ldr			s2			lic			ric			lasi			rasi			rpsi			lpsi			rgt			lgt			rth1			rth2			rth3			rth4			rlfc			rmfc			rsh1			rsh2			rsh3			rsh4			rlmal			rmmal			rcal			rtoe			rmt5			rmt1			lth1			lth2			lth4			lth3			llfc			lmfc			lsh1			lsh2			lsh3			lsh4			llmal			lmmal			lcal			ltoe			lmt1			lmt5			SBIKE			LBIKE			RBIKE			
		X1	Y1	Z1	X2	Y2	Z2	X3	Y3	Z3	X4	Y4	Z4	X5	Y5	Z5	X6	Y6	Z6	X7	Y7	Z7	X8	Y8	Z8	X9	Y9	Z9	X10	Y10	Z10	X11	Y11	Z11	X12	Y12	Z12	X13	Y13	Z13	X14	Y14	Z14	X15	Y15	Z15	X16	Y16	Z16	X17	Y17	Z17	X18	Y18	Z18	X19	Y19	Z19	X20	Y20	Z20	X21	Y21	Z21	X22	Y22	Z22	X23	Y23	Z23	X24	Y24	Z24	X25	Y25	Z25	X26	Y26	Z26	X27	Y27	Z27	X28	Y28	Z28	X29	Y29	Z29	X30	Y30	Z30	X31	Y31	Z31	X32	Y32	Z32	X33	Y33	Z33	X34	Y34	Z34	X35	Y35	Z35	X36	Y36	Z36	X37	Y37	Z37	X38	Y38	Z38	X39	Y39	Z39	X40	Y40	Z40	X41	Y41	Z41	X42	Y42	Z42	X43	Y43	Z43	X44	Y44	Z44	X45	Y45	Z45	X46	Y46	Z46	X47	Y47	Z47	X48	Y48	Z48	X49	Y49	Z49	X50	Y50	Z50	X51	Y51	Z51	X52	Y52	Z52	
1	0.0050	480.882853	1394.398036	-69.662149	481.611726	1412.215569	-400.044592	426.181573	1496.750474	-229.115627	464.333481	1329.601095	-227.004848	515.065965	1132.807889	30.578341	740.078122	952.826874	-20.025739	538.891200	1151.239224	-474.672805	750.828438	938.430010	-415.646997	-84.463593	1209.716133	-239.616125	100.145387	1216.665457	-416.696142	90.625423	1234.649936	-53.251124	110.524678	1137.503149	-384.353236	102.331422	1169.770118	-97.763624	-57.649950	1261.408537	-194.882300	-47.799833	1257.142832	-277.930614	28.271091	1163.234786	-35.410759	33.586010	1105.298635	-432.060676	146.737724	1078.745135	-8.800032	235.238186	1072.206875	-2.130187	308.123166	1026.259351	0.991007	248.049408	1104.341114	-15.472593	429.683743	960.287035	-12.614445	442.908629	949.668868	-140.506139	358.009879	810.822417	-4.610426	335.658649	727.502725	-25.934465	270.736960	666.744482	-35.970791	360.593489	716.744168	-52.745499	200.106782	556.210263	-66.245799	225.615254	573.506411	-153.358167	133.164102	510.927467	-112.328505	442.844522	509.441015	-103.662447	322.304758	490.219699	-37.991749	350.701682	508.375621	-151.559509	102.853263	960.551814	-455.166320	161.496040	896.658203	-457.390432	193.968179	913.632408	-452.612637	181.774442	810.296457	-446.027331	255.460250	702.200814	-429.483322	260.441915	693.070308	-307.251976	171.095842	549.507825	-449.080408	161.075620	466.763317	-430.104568	106.888875	393.661087	-420.473112	191.058884	458.391081	-406.651004	49.939837	281.556159	-397.437470	86.052561	291.420764	-308.902239	-21.453308	245.922292	-347.977560	283.119176	189.296482	-354.126567	192.124659	202.109151	-311.102853	159.421058	184.300382	-423.865222	-209.938779	947.373817	-225.743374	-2.709731	83.419395	-430.323722	-6.533740	80.977472	-30.444039	
2	0.0100	480.894839	1394.441184	-69.599650	481.659394	1412.255807	-400.114932	426.212684	1496.781614	-229.151066	464.360682	1329.618738	-227.018711	514.664289	1132.744151	30.807485	739.948773	953.070240	-19.428477	538.984455	1151.270081	-474.667255	750.880140	938.392238	-415.603525	-84.201231	1209.642636	-239.402355	100.214615	1216.671069	-416.685799	90.797804	1234.558830	-53.165658	110.650203	1137.505117	-384.358494	102.456216	1169.779182	-97.624302	-57.554713	1261.353721	-194.778438	-47.743005	1257.105109	-277.813133	28.418684	1163.123797	-35.350396	33.698497	1105.320497	-432.009659	146.880752	1078.628715	-8.762048	235.359048	1072.082310	-2.120425	308.245456	1026.128716	0.951009	248.179777	1104.218633	-15.453452	429.838101	960.124385	-12.702696	442.992800	949.543487	-140.579362	358.129166	810.706710	-4.650226	335.758769	727.389642	-25.974226	270.826960	666.653222	-35.978514	360.684002	716.649605	-52.795072	200.162510	556.128015	-66.230915	225.696380	573.392243	-153.363388	133.240731	510.818973	-112.299088	442.919358	509.408799	-103.670762	322.389097	490.147732	-38.012109	350.764055	508.314500	-151.558979	102.992461	960.573386	-455.120728	161.648666	896.699272	-457.378370	194.118135	913.679887	-452.556509	181.952909	810.330328	-446.002004	255.617418	702.228823	-429.500420	260.577523	693.078631	-307.231290	171.214252	549.567229	-449.079235	161.287314	467.227521	-430.302781	106.930070	393.746430	-420.467416	190.552027	457.721437	-405.513187	49.946205	281.666506	-397.430880	86.042722	291.528416	-308.910521	-21.474766	246.062465	-348.008007	283.084287	189.270823	-354.102212	192.073636	202.152924	-311.117408	159.364602	184.343121	-423.874971	-209.934672	947.370241	-225.730579	-2.714457	83.409226	-430.325895	-6.524141	80.965636	-30.461781	
3	0.0150	480.955528	1394.492662	-69.536061	481.699282	1412.290131	-400.133411	426.264496	1496.809673	-229.140398	464.473094	1329.646267	-227.061089	514.284835	1132.682835	31.020902	739.859685	953.325768	-18.825984	539.078103	1151.313338	-474.657545	750.953052	938.354000	-415.576382	-84.081425	1209.595031	-239.310803	100.255967	1216.686997	-416.663895	90.952449	1234.490762	-53.089213	110.733844	1137.504283	-384.313721	102.556156	1169.736345	-97.489111	-57.474639	1261.310655	-194.642587	-47.681250	1257.079224	-277.719568	28.570440	1163.018918	-35.260708	33.807890	1105.328374	-431.949206	146.992727	1078.507289	-8.726529	235.468489	1071.958275	-2.102799	308.367973	1025.984058	0.935734	248.316199	1104.097054	-15.428633	429.989715	960.018878	-12.760413	443.076868	949.454124	-140.663505	358.238348	810.603666	-4.694024	335.846446	727.292916	-26.013939	270.879523	666.590604	-35.998344	360.759515	716.552873	-52.849733	200.219052	556.052527	-66.250491	225.753865	573.313059	-153.370536	133.278807	510.724020	-112.306098	442.974326	509.386921	-103.677115	322.451391	490.095279	-38.031234	350.823497	508.259133	-151.568378	103.113299	960.598361	-455.087880	161.792762	896.724178	-457.328032	194.245087	913.720013	-452.506479	182.109282	810.342080	-445.988826	255.780563	702.243988	-429.464726	260.717071	693.110968	-307.221941	171.334314	549.617109	-449.063307	161.360950	467.272142	-430.294370	106.982869	393.805691	-420.449071	190.632513	457.775661	-405.504543	49.961097	281.769266	-397.454916	86.048889	291.603190	-308.911211	-21.501770	246.189977	-348.033656	283.041856	189.267532	-354.127871	192.046802	202.209002	-311.159871	159.323704	184.397390	-423.893395	-209.931914	947.366350	-225.726486	-2.712059	83.437170	-430.319977	-6.534795	80.974620	-30.447249	
4	0.0200	481.013745	1394.520590	-69.472992	482.109559	1411.754318	-398.239921	426.318459	1496.840831	-229.510782	462.038018	1329.521601	-228.549827	513.911349	1132.637969	31.243536	739.780487	953.508457	-18.271357	539.176235	1151.353511	-474.629641	750.990841	938.302824	-415.505969	-83.316319	1211.074436	-238.549732	99.679562	1217.110205	-417.570753	91.509406	1234.363553	-52.952245	108.962204	1135.672357	-380.577568	102.722050	1169.649227	-97.464884	-57.374876	1261.263981	-194.528683	-47.623420	1257.046847	-277.602870	28.718997	1162.917530	-35.181806	33.994360	1105.778442	-432.786422	147.052082	1078.334453	-8.678722	235.631519	1071.800918	-2.106750	308.617504	1025.836698	1.030323	247.666119	1104.343827	-16.163565	430.093916	959.722613	-12.707896	443.162328	949.373178	-140.720657	358.318941	810.511376	-4.708469	335.926249	727.198835	-26.053086	270.944063	666.523190	-36.014331	362.067656	717.399142	-52.729525	200.184689	556.004341	-66.143879	225.860102	573.255441	-153.293084	133.324973	510.654099	-112.305827	443.024482	509.367897	-103.683603	322.236859	490.145489	-37.897652	350.862151	508.230425	-151.565569	103.220038	960.615299	-455.102052	162.452814	895.887878	-455.569100	194.826252	913.180590	-451.337064	182.255688	810.342516	-445.968341	256.486138	701.620855	-428.204739	260.828700	693.125434	-307.203056	172.052760	548.781275	-447.566765	160.830002	464.500294	-426.022095	107.023737	393.868943	-420.448322	190.326139	455.476788	-401.818764	49.204223	282.998557	-398.971198	85.994584	291.691387	-308.905115	-21.512227	246.305516	-348.054567	283.464588	189.216487	-353.930214	192.019243	202.208261	-311.143723	159.975320	182.732475	-421.648728	-210.020760	947.426089	-226.188657	-2.703526	83.397363	-430.320030	-6.524656	80.965944	-30.457471	
5	0.0250	481.278654	1394.571388	-69.559697	482.008345	1412.214874	-399.439804	426.368532	1496.859104	-229.526831	462.103966	1330.160448	-230.228099	512.484176	1132.966019	30.347789	739.907453	953.674201	-17.795702	539.074017	1152.303868	-476.236547	751.989791	939.300749	-417.496278	-83.272674	1210.974519	-238.330229	100.734049	1217.876262	-419.088189	91.864018	1234.269771	-53.123209	109.809994	1136.589433	-381.840711	102.853041	1169.574723	-97.399675	-57.318734	1261.257075	-194.390561	-47.634850	1257.120860	-277.327088	28.919170	1162.843666	-35.105142	34.102403	1105.792016	-432.629062	147.282908	1078.209123	-8.642126	235.846378	1071.735480	-2.141182	308.938481	1025.644032	0.801943	247.946980	1104.190327	-16.229683	429.320224	960.336579	-13.930234	443.284401	949.273112	-140.735439	358.469094	810.470438	-4.745390	335.335006	727.481484	-27.081014	271.066681	666.481231	-36.010662	361.640379	717.737918	-53.607877	200.236387	555.977534	-66.153031	226.031716	573.110697	-153.472556	133.378467	510.608427	-112.263989	443.094278	509.440273	-103.828455	322.331812	490.162942	-37.987108	350.912374	508.119353	-151.504886	103.354876	960.564411	-455.122618	162.330250	896.507205	-456.872536	194.697700	913.852612	-452.754925	182.416984	810.386819	-445.968868	256.119504	702.173664	-429.634208	261.010607	693.031787	-307.197857	171.573349	549.682423	-449.176140	161.158889	465.681640	-427.783396	106.603925	394.767005	-421.541091	190.605259	456.674743	-403.530423	49.160646	283.033365	-399.036366	85.709590	291.699868	-309.820999	-21.389224	246.396768	-348.138076	282.768209	189.884198	-355.231737	192.026382	202.510042	-311.360123	159.259444	184.389551	-423.914715	-210.010967	947.411810	-226.285426	-2.944612	84.318956	-430.867618	-6.366302	80.815621	-30.428502	
